<?xml version="1.0" encoding="UTF-8" standalone="no"?>
<svg xmlns="http://www.w3.org/2000/svg" viewBox="0 0 512 512">
    <title>Tooth_inspection</title>
    <g id="Tooth_inspection" fill="#7BC1FA">
        <path d="M223.11,130.53h0l-12.19,3.7a42.41,42.41,0,0,1-25,0l-12.19-3.7a23.56,23.56,0,0,0-23.84,5.54c-9.43,8.88-13.11,24.68-9.38,40.27l18.73,78.34a16.45,16.45,0,0,0,15.71,12.71,9.67,9.67,0,0,0,9.51-8.92,146.43,146.43,0,0,1,5.87-30.73c3.65-11.55,7.06-15.09,8.11-15.51,1,.42,4.46,4,8.11,15.51a147.72,147.72,0,0,1,5.87,30.73,9.68,9.68,0,0,0,9.58,8.92,16.42,16.42,0,0,0,15.63-12.71l18.74-78.34c3.73-15.59.05-31.39-9.38-40.27A23.56,23.56,0,0,0,223.11,130.53ZM246.6,174l-18.73,78.34a6.57,6.57,0,0,1-5.54,5,155.77,155.77,0,0,0-6.73-34c-4.71-14.23-10.34-21.16-17.2-21.16s-12.49,6.93-17.2,21.16a155.16,155.16,0,0,0-6.73,34,6.58,6.58,0,0,1-5.54-5L150.19,174c-2.86-12-.24-24.3,6.52-30.67a13.75,13.75,0,0,1,9.52-3.94,15.88,15.88,0,0,1,4.56.7L183,143.8a52.3,52.3,0,0,0,30.84,0L226,140.1a13.76,13.76,0,0,1,14.08,3.24C246.85,149.71,249.47,162,246.6,174Z" />
        <path d="M295.81,101C242.1,47.27,154.7,47.27,101,101S47.28,242.09,101,295.8a137.92,137.92,0,0,0,194.82,0C349.52,242.09,349.52,154.69,295.81,101ZM108.06,288.73a127.76,127.76,0,1,1,180.68,0A127.91,127.91,0,0,1,108.06,288.73Z" />
        <path d="M304.43,179.33a106.76,106.76,0,0,0-29.83-57.14,5,5,0,0,0-7.08,7.07,96.72,96.72,0,0,1,27.06,51.82,5,5,0,0,0,4.92,4.13,5.33,5.33,0,0,0,.88-.08A5,5,0,0,0,304.43,179.33Z" />
        <path d="M262.86,112A106.49,106.49,0,0,0,244.8,101.1a5,5,0,0,0-4.3,9A97.76,97.76,0,0,1,256.87,120a4.93,4.93,0,0,0,3,1,5,5,0,0,0,3-9Z" />
        <path d="M466.28,410.38l-12.19-12.19-115-115c38.06-63.15,29.89-146.59-24.54-201-64.07-64.07-168.31-64.07-232.38,0s-64.07,168.31,0,232.38a164.62,164.62,0,0,0,201,24.54L397,452.83h0l13.45,13.44c.48.48,1,1,1.47,1.4l0,0A39.51,39.51,0,0,0,463.25,469l0,0q.68-.56,1.32-1.14l.21-.18c.5-.45,1-.91,1.46-1.39A39.44,39.44,0,0,0,475,453.21a40,40,0,0,0,1.76-5.47c.15-.62.29-1.24.41-1.86a39.9,39.9,0,0,0,.72-7.55A39.38,39.38,0,0,0,466.28,410.38Zm-5,46.53,0,.06c-.27.32-.54.64-.83,1l-.15.18c-.34.37-.68.74-1,1.09s-.72.7-1.09,1l-.19.16c-.31.28-.63.56-.95.82l-.07.06a29.58,29.58,0,0,1-37.13,0l-.09-.07-.86-.74-.29-.25-.64-.61-.44-.42-6.06-6.06-.31-.31,41.75-41.75,6.37,6.37c.36.36.7.72,1,1.09l.15.18c.29.32.56.64.83,1l0,.05A29.57,29.57,0,0,1,461.27,456.91Zm-372-149.4c-60.17-60.17-60.17-158.07,0-218.24a154.32,154.32,0,0,1,218.24,0c58,58,60.07,151,6.28,211.56l-13,13a154.51,154.51,0,0,1-211.56-6.28Zm204.23,27.74,14.2-14.19q3.5-3.12,6.88-6.48t6.48-6.88l14.19-14.2L445.77,404,404,445.76Z" />
    </g>
</svg>