<?xml version="1.0" encoding="iso-8859-1"?>
<!-- Generator: Adobe Illustrator 19.0.0, SVG Export Plug-In . SVG Version: 6.00 Build 0)  -->
<svg version="1.1" xmlns="http://www.w3.org/2000/svg" xmlns:xlink="http://www.w3.org/1999/xlink" x="0px" y="0px" viewBox="0 0 520 520" style="enable-background:new 0 0 520 520;" xml:space="preserve" fill="#7BC1FA">
	<g id="_x36_70_x2C__Care_x2C__Dental_x2C__Tooth">
		<g>
			<path d="M355.06,150.93c0.81-11.676,10.562-20.93,22.44-20.93c2.762,0,5-2.239,5-5s-2.238-5-5-5c-12.406,0-22.5-10.093-22.5-22.5
			c0-2.761-2.238-5-5-5c-2.762,0-5,2.239-5,5c0,12.407-10.094,22.5-22.5,22.5c-2.762,0-5,2.239-5,5s2.238,5,5,5
			c8.993,0,16.768,5.306,20.367,12.95c-24.093-13.152-52.622-14.208-78.021-1.386c-12.331,6.225-27.359,7.009-40.238,0.379
			c-12.172-6.266-25.152-9.443-38.58-9.443l-0.565,0.002c-25.659,0.173-49.59,11.846-67.383,32.868
			c-33.518,39.6-36.26,102.384-6.287,145.773c19.204,27.803,31.65,61.797,36,98.319l0.33,9.697
			c0.734,21.499,16.059,38.34,34.888,38.34c18.924,0,34.547-17.536,34.908-39.135c2.312-19.513,7.256-56.794,14.594-89.222
			c1.353-5.979,6.102-8.108,10.096-8.108c3.986,0,9.061,2.229,10.245,8.509c4.954,26.275,8.469,54.989,11.41,79.918l0.331,9.698
			c0.733,21.499,16.058,38.34,34.887,38.34c18.913,0,34.526-17.515,34.907-39.125c4.544-38.07,18.726-74.495,41.021-105.355
			c14.245-19.718,22.09-44.762,22.09-70.52C397.5,204.335,380.621,170.663,355.06,150.93z M350,114.805
			c2.595,4.109,6.087,7.6,10.195,10.195c-4.108,2.595-7.601,6.086-10.195,10.195c-2.595-4.109-6.087-7.6-10.195-10.195
			C343.913,122.405,347.405,118.914,350,114.805z M367.305,307.164c-23.34,32.305-38.166,70.442-42.877,110.291
			c-0.021,0.175-0.032,0.407-0.035,0.583c-0.198,16.245-11.374,29.462-24.911,29.462c-13.41,0-24.344-12.599-24.892-28.682
			c-0.45-12.312-0.177-8.61-0.662-12.801c-2.057-17.436-5.885-49.891-11.246-78.326c-2.169-11.506-11.644-16.656-20.071-16.656
			c-9.72,0-17.697,6.391-19.849,15.901c-7.473,33.02-12.482,70.886-14.803,90.519c-0.02,0.175-0.032,0.407-0.034,0.583
			c-0.2,16.245-11.375,29.462-24.912,29.462c-13.41,0-24.344-12.599-24.893-28.682c-0.359-10.354-0.325-9.946-0.37-10.322
			c-4.517-38.215-17.563-73.844-37.727-103.036c-12.296-17.801-18.862-39.343-18.989-62.298
			c-0.305-55.188,37.601-100.344,84.499-100.66l0.498-0.002c11.82,0,23.261,2.804,34.003,8.334
			c15.738,8.102,34.14,7.323,49.323-0.343c9.878-4.987,20.344-7.666,31.106-7.963c47.806-1.301,87.039,44.032,87.039,99.972
			C387.5,266.172,380.328,289.137,367.305,307.164z" />
			<path d="M197.466,165.298c-20.286,0.137-39.197,9.355-53.249,25.958c-13.863,16.379-21.428,38.139-21.301,61.271
			c0.015,2.753,2.25,4.973,4.999,4.973c0.009,0,0.019,0,0.028,0c2.762-0.016,4.988-2.266,4.973-5.027
			c-0.233-42.313,28.754-76.933,64.618-77.174c2.761-0.018,4.985-2.272,4.966-5.034
			C202.482,167.572,200.318,165.298,197.466,165.298z" />
			<path d="M327.5,162.5c0-2.761-2.238-5-5-5c-2.762,0-5,2.239-5,5c0,16.542-13.458,30-30,30c-2.762,0-5,2.239-5,5s2.238,5,5,5
			c16.542,0,30,13.458,30,30c0,2.761,2.238,5,5,5c2.762,0,5-2.239,5-5c0-16.542,13.458-30,30-30c2.762,0,5-2.239,5-5s-2.238-5-5-5
			C340.958,192.5,327.5,179.042,327.5,162.5z M322.5,213.149c-3.645-6.565-9.084-12.004-15.648-15.649
			c6.564-3.645,12.004-9.084,15.648-15.649c3.645,6.565,9.084,12.004,15.648,15.649C331.584,201.145,326.145,206.584,322.5,213.149z
			" />
			<path d="M452.5,142.5c-16.542,0-30,13.458-30,30s13.458,30,30,30s30-13.458,30-30S469.042,142.5,452.5,142.5z M452.5,192.5
			c-11.028,0-20-8.972-20-20s8.972-20,20-20c11.028,0,20,8.972,20,20S463.528,192.5,452.5,192.5z" />
			<path d="M117.5,97.5c0-22.056-17.944-40-40-40s-40,17.944-40,40s17.944,40,40,40S117.5,119.556,117.5,97.5z M77.5,127.5
			c-16.542,0-30-13.458-30-30s13.458-30,30-30s30,13.458,30,30S94.042,127.5,77.5,127.5z" />
			<circle cx="455" cy="275" r="7.5" />
			<circle cx="425" cy="70" r="7.5" />
			<circle cx="230" cy="60" r="7.5" />
			<circle cx="60" cy="195" r="7.5" />
			<circle cx="90" cy="402.5" r="7.5" />
			<circle cx="245" cy="460" r="7.5" />
			<circle cx="407.5" cy="395" r="7.5" />
		</g>
	</g>
	<g id="Layer_1">
	</g>
</svg>