<?xml version="1.0" encoding="UTF-8" standalone="no"?>
<svg xmlns="http://www.w3.org/2000/svg" viewBox="0 0 512 512" fill="#7BC1FA">
    <title>Toothbursh</title>
    <g id="Toothbrush">
        <path d="M446.89,19.72c0-.15,0-.3,0-.44s-.1-.45-.16-.67,0-.2-.08-.3a5.22,5.22,0,0,0-.41-.86l0,0a4.57,4.57,0,0,0-.6-.79l0,0c-.06-.07-.15-.12-.22-.19a4.43,4.43,0,0,0-.51-.45c-.1-.07-.22-.13-.32-.19a4.1,4.1,0,0,0-.54-.3l-.39-.15a5,5,0,0,0-.55-.17,4,4,0,0,0-.48-.07,2.7,2.7,0,0,0-.41-.06H286.23a2.7,2.7,0,0,0-.41.06,4,4,0,0,0-.48.07,5,5,0,0,0-.55.17c-.13,0-.26.09-.39.15a3.44,3.44,0,0,0-.53.3,2.23,2.23,0,0,0-.33.2,3.58,3.58,0,0,0-.51.44c-.07.07-.16.12-.22.19l0,0a4.57,4.57,0,0,0-.6.79l0,0a5.75,5.75,0,0,0-.41.87c0,.1-.05.2-.08.3a5,5,0,0,0-.16.67c0,.14,0,.29,0,.43a4.71,4.71,0,0,0,0,.53l19.38,405.55a24.26,24.26,0,0,0,23.15,23V492a5,5,0,0,0,5,5h70.38a5,5,0,0,0,5-5V448.83a24.26,24.26,0,0,0,23.16-23l1.55-32.37L446.92,20.24A4.41,4.41,0,0,0,446.89,19.72ZM436.56,25l-1.39,19.84H293.22L291.83,25ZM394.38,462.93H334V448.86h60.38ZM334,487V472.93h60.38V487Zm69.19-48.14h-78a14.29,14.29,0,0,1-14.36-13.55l-1.3-27.17H418.85l-1.3,27.17A14.29,14.29,0,0,1,403.19,438.86Zm16.14-50.72H309.06L293.14,54.84H435.25Z" />
        <path d="M162.89,50h-10V40a5,5,0,0,0-10,0V50h-10a5,5,0,1,0,0,10h10V70a5,5,0,0,0,10,0V60h10a5,5,0,0,0,0-10Z" />
        <path d="M250.08,119.88h-10v-10a5,5,0,0,0-10,0v10h-10a5,5,0,0,0,0,10h10v10a5,5,0,0,0,10,0v-10h10a5,5,0,1,0,0-10Z" />
        <path d="M273.45,236.57a5,5,0,0,0-3.73-1.67H155.6l-2.45-6.28,51.78-20.19a5,5,0,0,0,2.84-6.48l-32.9-84.39h0l-6.58-16.88a5,5,0,0,0-6.48-2.84L110,118l-.3-.77a23.12,23.12,0,1,0-43.07,16.8L106,234.9H91.89a5,5,0,0,0-5,5.57l25.75,225.42h0l3,26.58a4.61,4.61,0,0,0,.2.91,5,5,0,0,0,4.77,3.52H240.93a5,5,0,0,0,5-4.43l28.79-252A5,5,0,0,0,273.45,236.57ZM160.79,109l3,7.56-23.57,9.19a5,5,0,0,0,1.82,9.66,5.06,5.06,0,0,0,1.82-.34l23.56-9.19,2.95,7.56L132.64,148.1a5,5,0,0,0,3.63,9.32L174,142.73l3,7.56-17.43,6.8a5,5,0,1,0,3.63,9.31l17.43-6.79,2.95,7.56-23.56,9.19a5,5,0,0,0,1.81,9.66,4.86,4.86,0,0,0,1.82-.35l23.56-9.18,2.95,7.56-14.89,5.81a5,5,0,0,0,1.81,9.66,4.86,4.86,0,0,0,1.82-.35l14.89-5.8,2.95,7.56L149.52,219.3l-22.21-57-13.65-35ZM76,130.43a13.12,13.12,0,1,1,24.44-9.53l2.11,5.42h0l9.36,24,33,84.57H116.71ZM236.47,486.91H125.14l-.12-1.06-1.77-15.51H238.36Zm-13.06-40a13.12,13.12,0,0,1-24.23-.51L120.61,244.9h28.16l74.85,192A13,13,0,0,1,223.41,446.93Zm-113.53-202,80,205.15a23,23,0,0,0,8,10.29H122.11L97.49,244.9ZM239.51,460.34H225a23.08,23.08,0,0,0,7.95-27.08L159.5,244.9H264.12Z" />
    </g>
</svg>